<svg width="136" height="136" viewBox="0 0 136 136" version="1.1" xmlns="http://www.w3.org/2000/svg" xmlns:xlink="http://www.w3.org/1999/xlink">
<g id="Canvas" fill="none">
<g id="bookmarkIcon">
<g id="Rectangle">
<rect width="136" height="112.2" fill="white"/>
<rect x="1" y="1" width="134" height="110.2" stroke-width="2" stroke="black"/>
</g>
<g id="Vector">
<path d="M 11.277 12.3188L 19.277 20.6909L 20.723 19.3091L 12.723 10.937L 11.277 12.3188ZM 13 11.6279L 13 0L 11 0L 11 11.6279L 13 11.6279ZM 11.8468 10.6397L -0.153208 12.5002L 0.153208 14.4766L 12.1532 12.6161L 11.8468 10.6397Z" transform="translate(19 15)" fill="black"/>
</g>
<g id="Rectangle_2">
<path d="M 0 40L -1 40L -1 41L 0 41L 0 40ZM 13.3333 22.6087L 13.3333 23.6087L 13.7601 23.6087L 14.0553 23.3006L 13.3333 22.6087ZM 26.6667 8.69565L 26.6667 7.69565L 26.2399 7.69565L 25.9447 8.00375L 26.6667 8.69565ZM 40 8.69565L 40 9.69565L 40.4267 9.69565L 40.722 9.38756L 40 8.69565ZM 46.6667 1.73913L 46.6667 0.73913L 46.2399 0.73913L 45.9447 1.04722L 46.6667 1.73913ZM 53.3333 1.73913L 54.0553 1.04722L 53.7601 0.73913L 53.3333 0.73913L 53.3333 1.73913ZM 60 8.69565L 59.278 9.38756L 59.5733 9.69565L 60 9.69565L 60 8.69565ZM 76.6667 8.69565L 76.6667 9.69565L 77.0292 9.69565L 77.3075 9.46333L 76.6667 8.69565ZM 85 1.73913L 85 0.73913L 84.6375 0.73913L 84.3592 0.971457L 85 1.73913ZM 65 39L 0 39L 0 41L 65 41L 65 39ZM 1 40L 1 22.6087L -1 22.6087L -1 40L 1 40ZM 1 22.6087L 1 0L -1 0L -1 22.6087L 1 22.6087ZM 0 23.6087L 13.3333 23.6087L 13.3333 21.6087L 0 21.6087L 0 23.6087ZM 14.0553 23.3006L 27.3887 9.38756L 25.9447 8.00375L 12.6113 21.9168L 14.0553 23.3006ZM 26.6667 9.69565L 40 9.69565L 40 7.69565L 26.6667 7.69565L 26.6667 9.69565ZM 40.722 9.38756L 47.3887 2.43104L 45.9447 1.04722L 39.278 8.00375L 40.722 9.38756ZM 46.6667 2.73913L 53.3333 2.73913L 53.3333 0.73913L 46.6667 0.73913L 46.6667 2.73913ZM 52.6113 2.43104L 59.278 9.38756L 60.722 8.00375L 54.0553 1.04722L 52.6113 2.43104ZM 60 9.69565L 76.6667 9.69565L 76.6667 7.69565L 60 7.69565L 60 9.69565ZM 77.3075 9.46333L 85.6408 2.5068L 84.3592 0.971457L 76.0258 7.92798L 77.3075 9.46333ZM 85 2.73913L 90 2.73913L 90 0.73913L 85 0.73913L 85 2.73913Z" transform="translate(18 54)" fill="black"/>
</g>
<g id="Rectangle_3">
<rect width="61" height="27" transform="translate(57 13)" fill="white"/>
<rect x="1" y="1" width="59" height="25" stroke-width="2" transform="translate(57 13)" stroke="black"/>
</g>
<g id="Rectangle 2">
<rect width="3" height="10" transform="translate(65 26)" fill="black"/>
</g>
<g id="Rectangle 2.1">
<rect width="3" height="15" transform="translate(72 21)" fill="black"/>
</g>
<g id="Rectangle 2.2">
<rect width="3" height="12" transform="translate(79 24)" fill="black"/>
</g>
<g id="Rectangle 2.3">
<rect width="3" height="16" transform="translate(86 20)" fill="black"/>
</g>
<g id="Rectangle 2.4">
<rect width="3" height="16" transform="translate(93 20)" fill="black"/>
</g>
<g id="Rectangle 2.5">
<rect width="3" height="9" transform="translate(100 27)" fill="black"/>
</g>
<g id="Rectangle 2.6">
<rect width="3" height="9" transform="translate(107 27)" fill="black"/>
</g>
<g id="Mask Group">
<mask id="mask0" mask-type="alpha" maskUnits="userSpaceOnUse" x="17" y="13" width="27" height="27">
<g id="Rectangle_4">
<rect width="27" height="27" rx="13.5" transform="translate(17 13)" fill="white"/>
<rect x="1" y="1" width="25" height="25" rx="12.5" stroke-width="2" transform="translate(17 13)" stroke="black"/>
</g>
</mask>
<g mask="url(#mask0)">
<g id="Rectangle_5">
<rect x="1" y="1" width="25" height="25" rx="12.5" stroke-width="2" transform="translate(17 13)" stroke="black"/>
</g>
</g>
</g>
<g id="Rectangle_6">
<path fill-rule="evenodd" clip-rule="evenodd" d="M 0.999988 55.4837L 23.1223 34.6396L 23.8083 33.9932L 24.4941 34.6398L 46.6 55.4826L 46.6 0.999854L 0.999988 0.999854L 0.999988 55.4837Z" transform="translate(71.3999 78.2)" fill="white"/>
<path fill-rule="evenodd" clip-rule="evenodd" d="M 0.999988 55.4837L 23.1223 34.6396L 23.8083 33.9932L 24.4941 34.6398L 46.6 55.4826L 46.6 0.999854L 0.999988 0.999854L 0.999988 55.4837Z" stroke-width="2" stroke-miterlimit="8" transform="translate(71.3999 78.2)" stroke="#F2C811"/>
</g>
</g>
</g>
</svg>

