<svg width="16" height="16" viewBox="0 0 16 16" fill="none" xmlns="http://www.w3.org/2000/svg">
<path fill-rule="evenodd" clip-rule="evenodd" d="M8.73657 14.4906H12.0353V15.4935H3.54946L0.391773 12.328C0.266406 12.2026 0.169768 12.0551 0.101861 11.8853C0.0339539 11.7155 0 11.5392 0 11.3564C0 11.1736 0.0339537 10.9973 0.101861 10.8275C0.169768 10.6578 0.269018 10.5076 0.399609 10.377L9.77867 0.990112L16 7.2193L8.73657 14.4906ZM9.77868 2.40831L4.2155 7.9715L9.02647 12.7746L14.5818 7.21931L9.77868 2.40831ZM8.31345 13.4877L7.31051 14.4906H3.96477L1.11266 11.6307C1.03953 11.5575 1.00296 11.4661 1.00296 11.3564C1.00296 11.2467 1.03953 11.1553 1.11266 11.0822L3.51031 8.67669L8.31345 13.4877Z" fill="black"/>
</svg>
