<svg width="226" height="129" viewBox="0 0 226 129" fill="none" xmlns="http://www.w3.org/2000/svg">
<path d="M7.99814 2.90859C7.99814 1.8545 8.85264 1 9.90672 1H154.323C155.377 1 156.232 1.8545 156.232 2.90859V119.332C156.232 120.386 155.377 121.241 154.323 121.241H9.90673C8.85264 121.241 7.99814 120.386 7.99814 119.332V2.90859Z" fill="white"/>
<path d="M15.6325 9.27051V27.2499M88.1587 41.0803H16.9049C16.2021 41.0803 15.6325 40.5106 15.6325 39.8079V27.2499M15.6325 27.2499H30.0884C30.3619 27.2499 30.6282 27.1618 30.8477 26.9985L45.0488 16.4371C45.2683 16.2738 45.5346 16.1857 45.8081 16.1857H59.8427C60.1163 16.1857 60.3825 16.0975 60.602 15.9343L67.3646 10.9049C67.5841 10.7417 67.8503 10.6535 68.1239 10.6535H74.7199C74.9935 10.6535 75.2597 10.7417 75.4792 10.9049L82.5798 16.1857" stroke="#C8C8C8" stroke-width="1.27239" stroke-linecap="round" stroke-linejoin="round"/>
<rect x="93.2483" y="9.9067" width="55.9852" height="30.5374" rx="0.636195" fill="white" stroke="#C8C8C8" stroke-width="1.27239"/>
<rect x="98.9741" y="28.1572" width="2.65705" height="9.74252" rx="1.27239" fill="#EAEAEA"/>
<rect x="106.06" y="22.8433" width="2.65705" height="15.0566" rx="1.27239" fill="#EAEAEA"/>
<rect x="113.145" y="26.3862" width="2.65705" height="11.5139" rx="1.27239" fill="#EAEAEA"/>
<rect x="120.23" y="21.9575" width="2.65705" height="15.9423" rx="1.27239" fill="#EAEAEA"/>
<rect x="127.603" y="21.9946" width="3.18098" height="15.9049" rx="1.27239" fill="#EAEAEA"/>
<rect x="134.401" y="29.043" width="2.65705" height="8.85683" rx="1.27239" fill="#EAEAEA"/>
<rect x="141.487" y="29.043" width="2.65705" height="8.85683" rx="1.27239" fill="#EAEAEA"/>
<path d="M26.3784 66.2925L33.4717 73.7158M26.3784 66.2925V55.9824M26.3784 66.2925L15.7383 67.9421" stroke="#EAEAEA" stroke-width="1.27239"/>
<mask id="mask0" mask-type="alpha" maskUnits="userSpaceOnUse" x="14" y="54" width="24" height="25">
<rect x="14.8325" y="55.0766" width="22.4306" height="22.4306" rx="11.2153" fill="#C8C8C8" stroke="black" stroke-width="1.27239"/>
</mask>
<g mask="url(#mask0)">
<rect x="14.8325" y="55.0766" width="22.4306" height="22.4306" rx="11.2153" stroke="#C8C8C8" stroke-width="1.27239"/>
</g>
<path d="M26.3784 98.7383L33.4717 106.162M26.3784 98.7383V88.4282M26.3784 98.7383L15.7383 100.388" stroke="#EAEAEA" stroke-width="1.27239"/>
<mask id="mask1" mask-type="alpha" maskUnits="userSpaceOnUse" x="14" y="86" width="24" height="25">
<rect x="14.8325" y="87.5224" width="22.4306" height="22.4306" rx="11.2153" fill="#C8C8C8" stroke="black" stroke-width="1.27239"/>
</mask>
<g mask="url(#mask1)">
<rect x="14.8325" y="87.5224" width="22.4306" height="22.4306" rx="11.2153" stroke="#C8C8C8" stroke-width="1.27239"/>
</g>
<path d="M44.2613 51.8954C44.2613 51.1927 44.8309 50.623 45.5337 50.623H148.597C149.3 50.623 149.87 51.1927 149.87 51.8954V112.97C149.87 113.673 149.3 114.243 148.597 114.243H45.5337C44.8309 114.243 44.2613 113.673 44.2613 112.97V51.8954Z" fill="white" stroke="#F2C811" stroke-width="1.27239" stroke-linecap="round" stroke-linejoin="round"/>
<path d="M44.8975 60.166L149.233 60.166V58.8936L44.8975 58.8936V60.166Z" fill="#C8C8C8"/>
<path d="M74.1624 113.606L74.1624 59.5299H72.8901L72.8901 113.606H74.1624Z" fill="#C8C8C8"/>
<path d="M93.2483 113.606L93.2483 59.5299H91.9759L91.9759 113.606H93.2483Z" fill="#C8C8C8"/>
<path d="M112.334 113.606L112.334 59.5299H111.062L111.062 113.606H112.334Z" fill="#C8C8C8"/>
<path d="M131.42 113.606V59.5299H130.148V113.606H131.42Z" fill="#C8C8C8"/>
<path d="M76.7072 64.6197C76.3559 64.6197 76.071 64.9045 76.071 65.2559C76.071 65.6072 76.3559 65.8921 76.7072 65.8921V64.6197ZM85.6139 65.8921C85.9653 65.8921 86.2501 65.6072 86.2501 65.2559C86.2501 64.9045 85.9653 64.6197 85.6139 64.6197V65.8921ZM76.7072 65.8921H85.6139V64.6197H76.7072V65.8921Z" fill="#EAEAEA"/>
<path d="M76.7072 54.4405C76.3559 54.4405 76.071 54.7253 76.071 55.0767C76.071 55.428 76.3559 55.7129 76.7072 55.7129V54.4405ZM85.6139 55.7129C85.9653 55.7129 86.2501 55.428 86.2501 55.0767C86.2501 54.7253 85.9653 54.4405 85.6139 54.4405V55.7129ZM76.7072 55.7129H85.6139V54.4405H76.7072V55.7129Z" fill="#EAEAEA"/>
<path d="M76.7072 72.2539C76.3559 72.2539 76.071 72.5388 76.071 72.8901C76.071 73.2415 76.3559 73.5263 76.7072 73.5263V72.2539ZM85.6139 73.5263C85.9653 73.5263 86.2501 73.2415 86.2501 72.8901C86.2501 72.5388 85.9653 72.2539 85.6139 72.2539V73.5263ZM76.7072 73.5263H85.6139V72.2539H76.7072V73.5263Z" fill="#EAEAEA"/>
<path d="M76.7072 79.8882C76.3559 79.8882 76.071 80.1731 76.071 80.5244C76.071 80.8758 76.3559 81.1606 76.7072 81.1606V79.8882ZM85.6139 81.1606C85.9653 81.1606 86.2501 80.8758 86.2501 80.5244C86.2501 80.1731 85.9653 79.8882 85.6139 79.8882V81.1606ZM76.7072 81.1606H85.6139V79.8882H76.7072V81.1606Z" fill="#EAEAEA"/>
<path d="M76.7072 87.5225C76.3559 87.5225 76.071 87.8073 76.071 88.1587C76.071 88.5101 76.3559 88.7949 76.7072 88.7949V87.5225ZM85.6139 88.7949C85.9653 88.7949 86.2501 88.5101 86.2501 88.1587C86.2501 87.8073 85.9653 87.5225 85.6139 87.5225V88.7949ZM76.7072 88.7949H85.6139V87.5225H76.7072V88.7949Z" fill="#EAEAEA"/>
<path d="M76.7072 95.1568C76.3559 95.1568 76.071 95.4416 76.071 95.793C76.071 96.1443 76.3559 96.4292 76.7072 96.4292V95.1568ZM85.6139 96.4292C85.9653 96.4292 86.2501 96.1443 86.2501 95.793C86.2501 95.4416 85.9653 95.1568 85.6139 95.1568V96.4292ZM76.7072 96.4292H85.6139V95.1568H76.7072V96.4292Z" fill="#EAEAEA"/>
<path d="M76.7072 102.791C76.3559 102.791 76.071 103.076 76.071 103.427C76.071 103.779 76.3559 104.063 76.7072 104.063V102.791ZM85.6139 104.063C85.9653 104.063 86.2501 103.779 86.2501 103.427C86.2501 103.076 85.9653 102.791 85.6139 102.791V104.063ZM76.7072 104.063H85.6139V102.791H76.7072V104.063Z" fill="#EAEAEA"/>
<path d="M96.4293 64.6197C96.0779 64.6197 95.7931 64.9045 95.7931 65.2559C95.7931 65.6072 96.0779 65.8921 96.4293 65.8921V64.6197ZM105.336 65.8921C105.687 65.8921 105.972 65.6072 105.972 65.2559C105.972 64.9045 105.687 64.6197 105.336 64.6197V65.8921ZM96.4293 65.8921H105.336V64.6197H96.4293V65.8921Z" fill="#EAEAEA"/>
<path d="M96.4293 54.4405C96.0779 54.4405 95.7931 54.7253 95.7931 55.0767C95.7931 55.428 96.0779 55.7129 96.4293 55.7129V54.4405ZM105.336 55.7129C105.687 55.7129 105.972 55.428 105.972 55.0767C105.972 54.7253 105.687 54.4405 105.336 54.4405V55.7129ZM96.4293 55.7129H105.336V54.4405H96.4293V55.7129Z" fill="#EAEAEA"/>
<path d="M96.4293 72.2539C96.0779 72.2539 95.7931 72.5388 95.7931 72.8901C95.7931 73.2415 96.0779 73.5263 96.4293 73.5263V72.2539ZM105.336 73.5263C105.687 73.5263 105.972 73.2415 105.972 72.8901C105.972 72.5388 105.687 72.2539 105.336 72.2539V73.5263ZM96.4293 73.5263H105.336V72.2539H96.4293V73.5263Z" fill="#EAEAEA"/>
<path d="M96.4293 79.8882C96.0779 79.8882 95.7931 80.1731 95.7931 80.5244C95.7931 80.8758 96.0779 81.1606 96.4293 81.1606V79.8882ZM105.336 81.1606C105.687 81.1606 105.972 80.8758 105.972 80.5244C105.972 80.1731 105.687 79.8882 105.336 79.8882V81.1606ZM96.4293 81.1606H105.336V79.8882H96.4293V81.1606Z" fill="#EAEAEA"/>
<path d="M96.4293 87.5225C96.0779 87.5225 95.7931 87.8073 95.7931 88.1587C95.7931 88.5101 96.0779 88.7949 96.4293 88.7949V87.5225ZM105.336 88.7949C105.687 88.7949 105.972 88.5101 105.972 88.1587C105.972 87.8073 105.687 87.5225 105.336 87.5225V88.7949ZM96.4293 88.7949H105.336V87.5225H96.4293V88.7949Z" fill="#EAEAEA"/>
<path d="M96.4293 95.1568C96.0779 95.1568 95.7931 95.4416 95.7931 95.793C95.7931 96.1443 96.0779 96.4292 96.4293 96.4292V95.1568ZM105.336 96.4292C105.687 96.4292 105.972 96.1443 105.972 95.793C105.972 95.4416 105.687 95.1568 105.336 95.1568V96.4292ZM96.4293 96.4292H105.336V95.1568H96.4293V96.4292Z" fill="#EAEAEA"/>
<path d="M96.4293 102.791C96.0779 102.791 95.7931 103.076 95.7931 103.427C95.7931 103.779 96.0779 104.063 96.4293 104.063V102.791ZM105.336 104.063C105.687 104.063 105.972 103.779 105.972 103.427C105.972 103.076 105.687 102.791 105.336 102.791V104.063ZM96.4293 104.063H105.336V102.791H96.4293V104.063Z" fill="#EAEAEA"/>
<path d="M115.515 64.6197C115.164 64.6197 114.879 64.9045 114.879 65.2559C114.879 65.6072 115.164 65.8921 115.515 65.8921V64.6197ZM124.422 65.8921C124.773 65.8921 125.058 65.6072 125.058 65.2559C125.058 64.9045 124.773 64.6197 124.422 64.6197V65.8921ZM115.515 65.8921H124.422V64.6197H115.515V65.8921Z" fill="#EAEAEA"/>
<path d="M115.515 54.4405C115.164 54.4405 114.879 54.7253 114.879 55.0767C114.879 55.428 115.164 55.7129 115.515 55.7129V54.4405ZM124.422 55.7129C124.773 55.7129 125.058 55.428 125.058 55.0767C125.058 54.7253 124.773 54.4405 124.422 54.4405V55.7129ZM115.515 55.7129H124.422V54.4405H115.515V55.7129Z" fill="#EAEAEA"/>
<path d="M115.515 72.2539C115.164 72.2539 114.879 72.5388 114.879 72.8901C114.879 73.2415 115.164 73.5263 115.515 73.5263V72.2539ZM124.422 73.5263C124.773 73.5263 125.058 73.2415 125.058 72.8901C125.058 72.5388 124.773 72.2539 124.422 72.2539V73.5263ZM115.515 73.5263H124.422V72.2539H115.515V73.5263Z" fill="#EAEAEA"/>
<path d="M115.515 79.8882C115.164 79.8882 114.879 80.1731 114.879 80.5244C114.879 80.8758 115.164 81.1606 115.515 81.1606V79.8882ZM124.422 81.1606C124.773 81.1606 125.058 80.8758 125.058 80.5244C125.058 80.1731 124.773 79.8882 124.422 79.8882V81.1606ZM115.515 81.1606H124.422V79.8882H115.515V81.1606Z" fill="#EAEAEA"/>
<path d="M115.515 87.5225C115.164 87.5225 114.879 87.8073 114.879 88.1587C114.879 88.5101 115.164 88.7949 115.515 88.7949V87.5225ZM124.422 88.7949C124.773 88.7949 125.058 88.5101 125.058 88.1587C125.058 87.8073 124.773 87.5225 124.422 87.5225V88.7949ZM115.515 88.7949H124.422V87.5225H115.515V88.7949Z" fill="#EAEAEA"/>
<path d="M115.515 95.1568C115.164 95.1568 114.879 95.4416 114.879 95.793C114.879 96.1443 115.164 96.4292 115.515 96.4292V95.1568ZM124.422 96.4292C124.773 96.4292 125.058 96.1443 125.058 95.793C125.058 95.4416 124.773 95.1568 124.422 95.1568V96.4292ZM115.515 96.4292H124.422V95.1568H115.515V96.4292Z" fill="#EAEAEA"/>
<path d="M115.515 102.791C115.164 102.791 114.879 103.076 114.879 103.427C114.879 103.779 115.164 104.063 115.515 104.063V102.791ZM124.422 104.063C124.773 104.063 125.058 103.779 125.058 103.427C125.058 103.076 124.773 102.791 124.422 102.791V104.063ZM115.515 104.063H124.422V102.791H115.515V104.063Z" fill="#EAEAEA"/>
<path d="M134.601 64.6197C134.25 64.6197 133.965 64.9045 133.965 65.2559C133.965 65.6072 134.25 65.8921 134.601 65.8921V64.6197ZM143.508 65.8921C143.859 65.8921 144.144 65.6072 144.144 65.2559C144.144 64.9045 143.859 64.6197 143.508 64.6197V65.8921ZM134.601 65.8921H143.508V64.6197H134.601V65.8921Z" fill="#EAEAEA"/>
<path d="M134.601 54.4405C134.25 54.4405 133.965 54.7253 133.965 55.0767C133.965 55.428 134.25 55.7129 134.601 55.7129V54.4405ZM143.508 55.7129C143.859 55.7129 144.144 55.428 144.144 55.0767C144.144 54.7253 143.859 54.4405 143.508 54.4405V55.7129ZM134.601 55.7129H143.508V54.4405H134.601V55.7129Z" fill="#EAEAEA"/>
<path d="M134.601 72.2539C134.25 72.2539 133.965 72.5388 133.965 72.8901C133.965 73.2415 134.25 73.5263 134.601 73.5263V72.2539ZM143.508 73.5263C143.859 73.5263 144.144 73.2415 144.144 72.8901C144.144 72.5388 143.859 72.2539 143.508 72.2539V73.5263ZM134.601 73.5263H143.508V72.2539H134.601V73.5263Z" fill="#EAEAEA"/>
<path d="M134.601 79.8882C134.25 79.8882 133.965 80.1731 133.965 80.5244C133.965 80.8758 134.25 81.1606 134.601 81.1606V79.8882ZM143.508 81.1606C143.859 81.1606 144.144 80.8758 144.144 80.5244C144.144 80.1731 143.859 79.8882 143.508 79.8882V81.1606ZM134.601 81.1606H143.508V79.8882H134.601V81.1606Z" fill="#EAEAEA"/>
<path d="M134.601 87.5225C134.25 87.5225 133.965 87.8073 133.965 88.1587C133.965 88.5101 134.25 88.7949 134.601 88.7949V87.5225ZM143.508 88.7949C143.859 88.7949 144.144 88.5101 144.144 88.1587C144.144 87.8073 143.859 87.5225 143.508 87.5225V88.7949ZM134.601 88.7949H143.508V87.5225H134.601V88.7949Z" fill="#EAEAEA"/>
<path d="M134.601 95.1568C134.25 95.1568 133.965 95.4416 133.965 95.793C133.965 96.1443 134.25 96.4292 134.601 96.4292V95.1568ZM143.508 96.4292C143.859 96.4292 144.144 96.1443 144.144 95.793C144.144 95.4416 143.859 95.1568 143.508 95.1568V96.4292ZM134.601 96.4292H143.508V95.1568H134.601V96.4292Z" fill="#EAEAEA"/>
<path d="M134.601 102.791C134.25 102.791 133.965 103.076 133.965 103.427C133.965 103.779 134.25 104.063 134.601 104.063V102.791ZM143.508 104.063C143.859 104.063 144.144 103.779 144.144 103.427C144.144 103.076 143.859 102.791 143.508 102.791V104.063ZM134.601 104.063H143.508V102.791H134.601V104.063Z" fill="#EAEAEA"/>
<path d="M48.0784 64.6197C47.7271 64.6197 47.4422 64.9045 47.4422 65.2559C47.4422 65.6072 47.7271 65.8921 48.0784 65.8921V64.6197ZM65.8919 65.8921C66.2433 65.8921 66.5281 65.6072 66.5281 65.2559C66.5281 64.9045 66.2433 64.6197 65.8919 64.6197V65.8921ZM48.0784 65.8921H65.8919V64.6197H48.0784V65.8921Z" fill="#EAEAEA"/>
<path d="M48.0784 54.4405C47.7271 54.4405 47.4422 54.7253 47.4422 55.0767C47.4422 55.428 47.7271 55.7129 48.0784 55.7129V54.4405ZM59.5299 55.7129C59.8813 55.7129 60.1661 55.428 60.1661 55.0767C60.1661 54.7253 59.8813 54.4405 59.5299 54.4405V55.7129ZM48.0784 55.7129H59.5299V54.4405H48.0784V55.7129Z" fill="#EAEAEA"/>
<path d="M48.0784 72.2539C47.7271 72.2539 47.4422 72.5388 47.4422 72.8901C47.4422 73.2415 47.7271 73.5263 48.0784 73.5263V72.2539ZM65.8919 73.5263C66.2433 73.5263 66.5281 73.2415 66.5281 72.8901C66.5281 72.5388 66.2433 72.2539 65.8919 72.2539V73.5263ZM48.0784 73.5263H65.8919V72.2539H48.0784V73.5263Z" fill="#EAEAEA"/>
<path d="M48.0784 79.8882C47.7271 79.8882 47.4422 80.1731 47.4422 80.5244C47.4422 80.8758 47.7271 81.1606 48.0784 81.1606V79.8882ZM65.8919 81.1606C66.2433 81.1606 66.5281 80.8758 66.5281 80.5244C66.5281 80.1731 66.2433 79.8882 65.8919 79.8882V81.1606ZM48.0784 81.1606H65.8919V79.8882H48.0784V81.1606Z" fill="#EAEAEA"/>
<path d="M48.0784 87.5225C47.7271 87.5225 47.4422 87.8073 47.4422 88.1587C47.4422 88.5101 47.7271 88.7949 48.0784 88.7949V87.5225ZM65.8919 88.7949C66.2433 88.7949 66.5281 88.5101 66.5281 88.1587C66.5281 87.8073 66.2433 87.5225 65.8919 87.5225V88.7949ZM48.0784 88.7949H65.8919V87.5225H48.0784V88.7949Z" fill="#EAEAEA"/>
<path d="M48.0784 95.1568C47.7271 95.1568 47.4422 95.4416 47.4422 95.793C47.4422 96.1443 47.7271 96.4292 48.0784 96.4292V95.1568ZM65.8919 96.4292C66.2433 96.4292 66.5281 96.1443 66.5281 95.793C66.5281 95.4416 66.2433 95.1568 65.8919 95.1568V96.4292ZM48.0784 96.4292H65.8919V95.1568H48.0784V96.4292Z" fill="#EAEAEA"/>
<path d="M48.0784 102.791C47.7271 102.791 47.4422 103.076 47.4422 103.427C47.4422 103.779 47.7271 104.063 48.0784 104.063V102.791ZM65.8919 104.063C66.2433 104.063 66.5281 103.779 66.5281 103.427C66.5281 103.076 66.2433 102.791 65.8919 102.791V104.063ZM48.0784 104.063H65.8919V102.791H48.0784V104.063Z" fill="#EAEAEA"/>
<path d="M7.99814 2.90859C7.99814 1.8545 8.85264 1 9.90672 1H154.323C155.377 1 156.232 1.8545 156.232 2.90859V119.332C156.232 120.386 155.377 121.241 154.323 121.241H9.90673C8.85264 121.241 7.99814 120.386 7.99814 119.332V2.90859Z" stroke="#333333" stroke-width="1.27239" stroke-linecap="round" stroke-linejoin="round"/>
<path d="M214.926 70.3452L216.028 70.9814" stroke="#C8C8C8" stroke-width="1.27239" stroke-linecap="round" stroke-linejoin="round"/>
<path d="M211.581 72.605L211.91 73.834" stroke="#C8C8C8" stroke-width="1.27239" stroke-linecap="round" stroke-linejoin="round"/>
<circle cx="199.811" cy="54.7586" r="16.8592" fill="white" stroke="#F2C811" stroke-width="1.27239" stroke-linecap="round"/>
<path d="M180.407 55.7129H152.414" stroke="#F2C811" stroke-width="1.27239" stroke-linecap="round" stroke-linejoin="round" stroke-dasharray="2.54 2.54"/>
<path d="M174.681 55.7129L174.681 75.4349" stroke="#F2C811" stroke-width="1.27239" stroke-linecap="round" stroke-linejoin="round" stroke-dasharray="2.54 2.54"/>
<circle cx="175.317" cy="89.4314" r="13.9963" fill="white" stroke="#F2C811" stroke-width="1.27239"/>
<path d="M199.811 54.8003L199.486 55.3472L199.807 55.5379L200.13 55.3509L199.811 54.8003ZM208.082 50.7469C208.386 50.5708 208.49 50.1816 208.314 49.8775C208.138 49.5735 207.749 49.4697 207.445 49.6457L208.082 50.7469ZM191.743 50.7431L199.486 55.3472L200.136 54.2535L192.393 49.6495L191.743 50.7431ZM200.13 55.3509L208.082 50.7469L207.445 49.6457L199.492 54.2498L200.13 55.3509Z" fill="#333333"/>
<rect x="191.859" y="49.9868" width="15.9049" height="9.62664" stroke="#333333" stroke-width="1.27239" stroke-linecap="round" stroke-linejoin="round"/>
<path d="M5.45337 124.888L6.08956 123.786" stroke="#F2C811" stroke-width="1.27239" stroke-linecap="round" stroke-linejoin="round"/>
<path d="M1 122.195L3.75481 120.605" stroke="#C8C8C8" stroke-width="1.27239" stroke-linecap="round" stroke-linejoin="round"/>
<path d="M12.832 124.74L10.9234 128.046" stroke="#C8C8C8" stroke-width="1.27239" stroke-linecap="round" stroke-linejoin="round"/>
<path d="M10.2248 125.438L13.5306 127.347" stroke="#C8C8C8" stroke-width="1.27239" stroke-linecap="round" stroke-linejoin="round"/>
<path d="M164.866 72.8579L161.179 71.87" stroke="#F2C811" stroke-width="1.27239" stroke-linecap="round" stroke-linejoin="round"/>
<path d="M163.516 70.52L162.529 74.2071" stroke="#F2C811" stroke-width="1.27239" stroke-linecap="round" stroke-linejoin="round"/>
<path d="M167.632 69.0708L167.564 67.8002" stroke="#C8C8C8" stroke-width="1.27239" stroke-linecap="round" stroke-linejoin="round"/>
<path d="M209.036 29.6289V32.8099" stroke="#F2C811" stroke-width="1.27239" stroke-linecap="round" stroke-linejoin="round"/>
<path d="M214.307 32.6343L211.552 34.2248" stroke="#C8C8C8" stroke-width="1.27239" stroke-linecap="round" stroke-linejoin="round"/>
<path d="M219.838 39.1719C222.868 43.5091 224.649 48.8099 224.649 54.5333C224.649 58.3766 223.846 62.0294 222.401 65.3278M219.838 69.8947C219.44 70.4653 219.019 71.0193 218.579 71.5554L219.838 69.8947Z" stroke="#F2C811" stroke-width="1.27239" stroke-linecap="round" stroke-linejoin="round"/>
<path d="M178.919 81.7969C179.055 81.7969 179.18 81.8228 179.296 81.8745C179.412 81.9263 179.512 81.9988 179.598 82.092C179.688 82.18 179.759 82.2835 179.809 82.4026C179.859 82.5217 179.884 82.6511 179.884 82.7909V96.7077C179.884 96.8475 179.859 96.9769 179.809 97.096C179.759 97.2151 179.688 97.3212 179.598 97.4144C179.512 97.5024 179.412 97.5723 179.296 97.6241C179.18 97.6759 179.055 97.7018 178.919 97.7018H171.194C171.058 97.7018 170.932 97.6759 170.816 97.6241C170.701 97.5723 170.598 97.5024 170.507 97.4144C170.422 97.3212 170.354 97.2151 170.303 97.096C170.253 96.9769 170.228 96.8475 170.228 96.7077V82.7909C170.228 82.6511 170.253 82.5217 170.303 82.4026C170.354 82.2835 170.422 82.18 170.507 82.092C170.598 81.9988 170.701 81.9263 170.816 81.8745C170.932 81.8228 171.058 81.7969 171.194 81.7969H178.919ZM178.919 82.7909H171.194V96.7077H178.919V82.7909ZM174.091 94.7196H176.022V95.7136H174.091V94.7196Z" fill="black"/>
</svg>
