<svg width="10" height="16" viewBox="0 0 10 16" fill="none" xmlns="http://www.w3.org/2000/svg">
<path d="M9 0C9.14062 0 9.27083 0.0260417 9.39062 0.078125C9.51042 0.130208 9.61458 0.203125 9.70312 0.296875C9.79688 0.385417 9.86979 0.489583 9.92188 0.609375C9.97396 0.729167 10 0.859375 10 1V15C10 15.1406 9.97396 15.2708 9.92188 15.3906C9.86979 15.5104 9.79688 15.6172 9.70312 15.7109C9.61458 15.7995 9.51042 15.8698 9.39062 15.9219C9.27083 15.974 9.14062 16 9 16H1C0.859375 16 0.729167 15.974 0.609375 15.9219C0.489583 15.8698 0.382812 15.7995 0.289062 15.7109C0.200521 15.6172 0.130208 15.5104 0.078125 15.3906C0.0260417 15.2708 0 15.1406 0 15V1C0 0.859375 0.0260417 0.729167 0.078125 0.609375C0.130208 0.489583 0.200521 0.385417 0.289062 0.296875C0.382812 0.203125 0.489583 0.130208 0.609375 0.078125C0.729167 0.0260417 0.859375 0 1 0H9ZM9 1H1V15H9V1ZM4 13H6V14H4V13Z" fill="black"/>
</svg>
