<svg width="16" height="16" viewBox="0 0 16 16" fill="none" xmlns="http://www.w3.org/2000/svg">
<path fill-rule="evenodd" clip-rule="evenodd" d="M15 6C15.1354 6 15.2643 6.02604 15.3867 6.07812C15.5091 6.1302 15.6159 6.20182 15.707 6.29296C15.7982 6.38411 15.8698 6.49088 15.9219 6.61328C15.9739 6.73567 16 6.86458 16 7V14H12V16H4V14H0V7C0 6.86458 0.0260416 6.73567 0.0781248 6.61328C0.130208 6.49088 0.201822 6.38411 0.292968 6.29296C0.384114 6.20182 0.490885 6.1302 0.613281 6.07812C0.735676 6.02604 0.864582 6 0.999999 6H4V0H12V6H15ZM5 6H11V0.999999H5V6ZM5 11H11V15H5V11ZM15 7H0.999999V13H4V9.99999H12V13H15V7ZM2.85156 8.14843C2.7526 8.04947 2.63542 8 2.5 8C2.36458 8 2.24739 8.04947 2.14844 8.14843C2.04948 8.24739 2 8.36458 2 8.5C2 8.63541 2.04948 8.7526 2.14844 8.85156C2.24739 8.95052 2.36458 8.99999 2.5 8.99999C2.63542 8.99999 2.7526 8.95052 2.85156 8.85156C2.95052 8.7526 3 8.63541 3 8.5C3 8.36458 2.95052 8.24739 2.85156 8.14843Z" fill="black"/>
</svg>
