<svg width="269" height="142" viewBox="0 0 269 142" fill="none" xmlns="http://www.w3.org/2000/svg">
<rect x="95.8034" y="29.4219" width="147.134" height="94.097" rx="2.17939" fill="white"/>
<rect x="96.6588" y="30.2773" width="145.423" height="92.3862" rx="1.32396" stroke="#333333" stroke-width="1.71086"/>
<line x1="97.7485" y1="39.6937" x2="240.758" y2="39.6937" stroke="#CCCCCC" stroke-width="1.6966"/>
<rect x="97.5143" y="40.542" width="45.3377" height="81.2656" rx="2.17939" fill="#EAEAEA"/>
<line x1="103.502" y1="50.8077" x2="136.864" y2="50.8077" stroke="#C8C8C8" stroke-width="1.71086" stroke-linecap="round"/>
<line x1="149.695" y1="101.278" x2="225.828" y2="101.278" stroke="#C8C8C8" stroke-width="1.71086" stroke-linecap="round"/>
<line x1="149.695" y1="111.543" x2="225.828" y2="111.543" stroke="#C8C8C8" stroke-width="1.71086" stroke-linecap="round"/>
<line x1="103.502" y1="61.0723" x2="136.864" y2="61.0723" stroke="#C8C8C8" stroke-width="1.71086" stroke-linecap="round"/>
<line x1="103.502" y1="71.3379" x2="136.864" y2="71.3379" stroke="#C8C8C8" stroke-width="1.71086" stroke-linecap="round"/>
<line x1="103.502" y1="81.6026" x2="136.864" y2="81.6026" stroke="#C8C8C8" stroke-width="1.71086" stroke-linecap="round"/>
<line x1="103.502" y1="91.8682" x2="136.864" y2="91.8682" stroke="#C8C8C8" stroke-width="1.71086" stroke-linecap="round"/>
<rect x="150.551" y="46.5307" width="84.6873" height="44.4822" rx="1.32396" stroke="#C8C8C8" stroke-width="1.71086"/>
<circle cx="162.527" cy="58.5061" r="5.98799" fill="#C4C4C4"/>
<path d="M158.25 85.0245L170.383 72.6933C171.237 71.8255 172.636 71.8255 173.49 72.6933L179.093 78.3875C179.947 79.2553 181.346 79.2553 182.2 78.3875L202.734 57.5187C203.588 56.651 204.987 56.651 205.841 57.5187L226.684 78.7018" stroke="#C8C8C8" stroke-width="1.71086" stroke-linecap="round"/>
<path d="M243.969 69.3073C301.583 87.6953 15.7665 150.066 2.03657 79.1653C-4.49161 60.6541 20.2085 33.7379 65.0326 23.9731" stroke="#F2C811" stroke-width="1.71086" stroke-linecap="round" stroke-linejoin="round" stroke-dasharray="3.42 3.42"/>
<g clip-path="url(#clip0)">
<path d="M37.375 81.0923C36.0088 79.9873 33.979 80.9151 33.9113 82.6595L33.3803 96.657C33.3641 97.0741 33.2117 97.4784 32.9485 97.8024L24.092 108.674C22.987 110.041 23.9148 112.07 25.6592 112.138L71.719 113.931C73.7668 114.01 74.7319 111.45 73.1413 110.158L37.375 81.0923ZM35.1532 85.0129C35.1854 84.2812 34.8671 82.3016 35.8521 82.0701C36.5645 81.9154 37.7367 83.1268 38.3076 83.5857L63.0799 103.71C64.0212 104.411 69.6535 108.625 69.3741 109.366C69.027 110.287 62.2054 107.459 61.2958 107.116L36.119 97.6252C35.2655 97.3035 34.7093 96.4654 34.7446 95.5553L35.1532 85.0129Z" fill="black"/>
<path d="M35.1528 85.0122C35.185 84.2804 34.8667 82.3008 35.8517 82.0693C36.5642 81.9146 37.7363 83.126 38.3072 83.5849L63.0795 103.709C64.0208 104.41 69.6531 108.624 69.3737 109.365C69.0266 110.286 62.2051 107.458 61.2955 107.115L36.1186 97.6244C35.2652 97.3027 34.709 96.4646 34.7442 95.5545L35.1528 85.0122Z" fill="white"/>
<path d="M32.7832 99.8044C33.3575 99.0975 34.3285 98.8351 35.182 99.1568L60.3588 108.647C61.2797 108.995 68.2593 111.369 67.9122 112.29C67.6328 113.031 60.6051 112.485 59.4507 112.384L27.554 111.159C26.8223 111.127 25.1379 111.274 24.7091 110.676C24.122 109.852 25.6524 108.582 26.1267 108.004L32.7832 99.8044Z" fill="white"/>
<path d="M77.2819 118L75.8885 118.028" stroke="#F2C811" stroke-width="0.557462" stroke-linecap="round" stroke-linejoin="round"/>
<path d="M76.0113 120.335L75.2906 119.142" stroke="#C8C8C8" stroke-width="0.557462" stroke-linecap="round" stroke-linejoin="round"/>
</g>
<path d="M24.0983 74.1665L26.3741 73.8928" stroke="#F2C811" stroke-width="0.91688" stroke-linecap="round" stroke-linejoin="round"/>
<path d="M25.7949 70.1372L27.1698 71.9713" stroke="#C8C8C8" stroke-width="0.91688" stroke-linecap="round" stroke-linejoin="round"/>
<path d="M28.6382 79.7879C31.4805 77.2471 35.1197 75.5169 39.2145 75.0245C41.9642 74.6938 44.6466 74.9542 47.1308 75.7043M50.6186 77.1448C51.0611 77.3809 51.4936 77.6339 51.9151 77.903L50.6186 77.1448Z" stroke="#F2C811" stroke-width="0.91688" stroke-linecap="round" stroke-linejoin="round"/>
<path d="M265.799 101.722L267.234 100.791" stroke="#C8C6C4" stroke-width="1.71086" stroke-linecap="round" stroke-linejoin="round"/>
<path d="M260.531 98.3975L260.442 96.6889" stroke="#C8C6C4" stroke-width="1.71086" stroke-linecap="round" stroke-linejoin="round"/>
<path d="M248.986 27.623L250.421 26.692" stroke="#C8C6C4" stroke-width="1.71086" stroke-linecap="round" stroke-linejoin="round"/>
<path d="M243.718 24.2983L243.63 22.5898" stroke="#C8C6C4" stroke-width="1.71086" stroke-linecap="round" stroke-linejoin="round"/>
<path d="M228.042 131.031L224.014 134.211" stroke="#C8C6C4" stroke-width="1.71086" stroke-linecap="round" stroke-linejoin="round"/>
<path d="M224.438 130.606L227.618 134.635" stroke="#C8C6C4" stroke-width="1.71086" stroke-linecap="round" stroke-linejoin="round"/>
<path d="M229.347 140.083L230.37 138.712" stroke="#C8C8C8" stroke-width="1.71085" stroke-linecap="round" stroke-linejoin="round"/>
<path d="M88.6495 13.3008L86.9387 13.3008" stroke="#C8C8C8" stroke-width="1.71086" stroke-linecap="round" stroke-linejoin="round"/>
<path d="M86.8982 6.49316L81.9405 7.82157" stroke="#F2C811" stroke-width="1.71086" stroke-linecap="round" stroke-linejoin="round"/>
<path d="M83.7552 4.67822L85.0837 9.6359" stroke="#F2C811" stroke-width="1.71086" stroke-linecap="round" stroke-linejoin="round"/>
<path d="M78.843 2.9292V4.64005" stroke="#C8C8C8" stroke-width="1.71086" stroke-linecap="round" stroke-linejoin="round"/>
<circle cx="60.9935" cy="24.8072" r="19.6748" fill="white" stroke="#F2C811" stroke-width="1.71086" stroke-linecap="round"/>
<path d="M60.7411 37.4195C65.8955 37.4195 70.0739 36.1647 70.0739 34.6169V14.9985H51.4083V34.6169C51.4083 36.1647 55.5868 37.4195 60.7411 37.4195Z" fill="white"/>
<path d="M70.0738 27.8906C70.0738 29.4385 65.8954 30.6932 60.7411 30.6932C55.5867 30.6932 51.4083 29.4385 51.4083 27.8906" stroke="#C8C8C8" stroke-width="1.00897"/>
<path d="M70.0738 21.165C70.0738 22.7129 65.8954 23.9677 60.7411 23.9677C55.5867 23.9677 51.4083 22.7129 51.4083 21.165" stroke="#C8C8C8" stroke-width="1.00897"/>
<path d="M51.4083 14.9985V34.6169C51.4083 36.1647 55.5868 37.4195 60.7411 37.4195C65.8955 37.4195 70.0739 36.1647 70.0739 34.6169V14.9985" stroke="#333333" stroke-width="1.00897"/>
<ellipse cx="60.7417" cy="14.9979" rx="9.33279" ry="2.80262" fill="white" stroke="#333333" stroke-width="1.00897"/>
<circle cx="243.675" cy="115.181" r="17.1086" fill="white" stroke="#F2C811" stroke-width="1.71086"/>
<path d="M243.345 106.79C243.885 106.79 244.406 106.86 244.907 106.999C245.408 107.138 245.876 107.336 246.31 107.592C246.75 107.848 247.148 108.154 247.505 108.511C247.861 108.867 248.168 109.266 248.424 109.706C248.68 110.14 248.878 110.608 249.017 111.109C249.156 111.61 249.226 112.131 249.226 112.671C249.226 113.479 249.073 114.228 248.766 114.918C248.46 115.609 248.023 116.235 247.455 116.798C246.993 117.255 246.636 117.764 246.385 118.327C246.14 118.889 246.018 119.499 246.018 120.156V122.295C246.018 122.517 245.976 122.726 245.893 122.921C245.809 123.116 245.695 123.286 245.55 123.431C245.405 123.576 245.235 123.69 245.041 123.773C244.846 123.857 244.637 123.899 244.414 123.899H242.275C242.053 123.899 241.844 123.857 241.649 123.773C241.454 123.69 241.284 123.576 241.139 123.431C240.994 123.286 240.88 123.116 240.797 122.921C240.713 122.726 240.671 122.517 240.671 122.295V120.156C240.671 119.499 240.546 118.889 240.296 118.327C240.051 117.764 239.697 117.255 239.235 116.798C238.667 116.235 238.229 115.609 237.923 114.918C237.617 114.228 237.464 113.479 237.464 112.671C237.464 112.131 237.533 111.61 237.672 111.109C237.812 110.608 238.009 110.14 238.266 109.706C238.522 109.266 238.828 108.867 239.185 108.511C239.541 108.154 239.936 107.848 240.371 107.592C240.811 107.336 241.281 107.138 241.783 106.999C242.284 106.86 242.804 106.79 243.345 106.79ZM244.414 122.829C244.559 122.829 244.684 122.776 244.79 122.671C244.896 122.565 244.949 122.439 244.949 122.295V120.691H241.741V122.295C241.741 122.439 241.794 122.565 241.899 122.671C242.005 122.776 242.131 122.829 242.275 122.829H244.414ZM244.974 119.621C245.041 118.909 245.222 118.26 245.517 117.675C245.817 117.085 246.218 116.536 246.72 116.029C247.182 115.567 247.536 115.058 247.781 114.501C248.031 113.938 248.156 113.328 248.156 112.671C248.156 112.008 248.028 111.385 247.772 110.8C247.522 110.215 247.179 109.706 246.745 109.271C246.31 108.837 245.801 108.494 245.216 108.244C244.631 107.987 244.007 107.859 243.345 107.859C242.682 107.859 242.058 107.987 241.473 108.244C240.889 108.494 240.379 108.837 239.945 109.271C239.51 109.706 239.165 110.215 238.909 110.8C238.658 111.385 238.533 112.008 238.533 112.671C238.533 113.328 238.655 113.938 238.9 114.501C239.151 115.058 239.508 115.567 239.97 116.029C240.471 116.536 240.869 117.085 241.164 117.675C241.465 118.26 241.649 118.909 241.716 119.621H242.81V115.344C242.81 115.2 242.863 115.074 242.969 114.968C243.075 114.863 243.2 114.81 243.345 114.81C243.489 114.81 243.615 114.863 243.721 114.968C243.826 115.074 243.879 115.2 243.879 115.344V119.621H244.974ZM240.671 111.602C240.816 111.602 240.942 111.655 241.047 111.761L242.117 112.83C242.222 112.936 242.275 113.061 242.275 113.206C242.275 113.351 242.222 113.476 242.117 113.582C242.011 113.687 241.886 113.74 241.741 113.74C241.596 113.74 241.471 113.687 241.365 113.582L240.296 112.512C240.19 112.407 240.137 112.281 240.137 112.136C240.137 111.992 240.19 111.866 240.296 111.761C240.401 111.655 240.527 111.602 240.671 111.602ZM244.414 113.206C244.414 113.061 244.467 112.936 244.573 112.83L245.642 111.761C245.748 111.655 245.873 111.602 246.018 111.602C246.163 111.602 246.288 111.655 246.394 111.761C246.5 111.866 246.553 111.992 246.553 112.136C246.553 112.281 246.5 112.407 246.394 112.512L245.325 113.582C245.219 113.687 245.093 113.74 244.949 113.74C244.804 113.74 244.679 113.687 244.573 113.582C244.467 113.476 244.414 113.351 244.414 113.206ZM243.345 109.998C243.489 109.998 243.615 110.051 243.721 110.157C243.826 110.262 243.879 110.388 243.879 110.533V112.136C243.879 112.281 243.826 112.407 243.721 112.512C243.615 112.618 243.489 112.671 243.345 112.671C243.2 112.671 243.075 112.618 242.969 112.512C242.863 112.407 242.81 112.281 242.81 112.136V110.533C242.81 110.388 242.863 110.262 242.969 110.157C243.075 110.051 243.2 109.998 243.345 109.998Z" fill="black"/>
<defs>
<clipPath id="clip0">
<rect width="47.98" height="33.4108" fill="white" transform="translate(34.785 80) rotate(20.6544)"/>
</clipPath>
</defs>
</svg>
