<svg width="16" height="16" viewBox="0 0 16 16" fill="none" xmlns="http://www.w3.org/2000/svg">
<path d="M10.1328 0.296869C10.9974 0.531244 11.7891 0.89713 12.5078 1.39453C13.2266 1.89192 13.8451 2.48047 14.3633 3.16015C14.8815 3.83984 15.2839 4.59244 15.5703 5.41796C15.8568 6.24348 16 7.10416 16 8C16 8.73437 15.9049 9.4427 15.7148 10.125C15.5247 10.8073 15.2565 11.4453 14.9102 12.0391C14.5638 12.6328 14.1471 13.1732 13.6602 13.6602C13.1732 14.1471 12.6328 14.5638 12.0391 14.9102C11.4453 15.2565 10.8073 15.5247 10.125 15.7148C9.44271 15.9049 8.73437 16 8 16C7.26563 16 6.55729 15.9049 5.875 15.7148C5.19271 15.5247 4.55468 15.2565 3.96094 14.9102C3.36719 14.5638 2.82682 14.1471 2.33984 13.6602C1.85286 13.1732 1.4362 12.6328 1.08984 12.0391C0.74349 11.4453 0.475263 10.8086 0.285156 10.1289C0.0950522 9.44922 0 8.73958 0 8C0 7.27083 0.0963541 6.5625 0.289062 5.875C0.48177 5.1875 0.75651 4.54037 1.11328 3.93359C1.47005 3.32682 1.90364 2.77474 2.41406 2.27734C2.92448 1.77995 3.49999 1.35416 4.14062 0.999999H1.99999V0H5.99999V4H4.99999V1.67968C4.39062 1.97135 3.83984 2.33724 3.34765 2.77734C2.85546 3.21744 2.43489 3.71224 2.08594 4.26171C1.73698 4.81119 1.46875 5.40364 1.28125 6.03906C1.09375 6.67448 0.999998 7.32812 0.999998 8C0.999998 8.64062 1.08333 9.25911 1.25 9.85546C1.41666 10.4518 1.65234 11.0091 1.95703 11.5273C2.26171 12.0456 2.6276 12.5182 3.05469 12.9453C3.48177 13.3724 3.95442 13.7383 4.47265 14.043C4.99088 14.3476 5.54687 14.5833 6.14062 14.75C6.73437 14.9167 7.35416 15 7.99999 15C8.64062 15 9.25911 14.9167 9.85546 14.75C10.4518 14.5833 11.0091 14.3476 11.5273 14.043C12.0456 13.7383 12.5182 13.3724 12.9453 12.9453C13.3724 12.5182 13.7383 12.0456 14.043 11.5273C14.3476 11.0091 14.5833 10.4531 14.75 9.85937C14.9167 9.26562 15 8.64583 15 8C15 7.21874 14.8737 6.46614 14.6211 5.74218C14.3685 5.01823 14.0156 4.35937 13.5625 3.76562C13.1094 3.17188 12.569 2.65755 11.9414 2.22265C11.3138 1.78776 10.6224 1.46615 9.86718 1.25781L10.1328 0.296869Z" fill="black"/>
</svg>
